<?xml version="1.0" encoding="utf-8"?>
<!-- Svg Vector Icons : http://www.onlinewebfonts.com/icon -->
<!DOCTYPE svg PUBLIC "-//W3C//DTD SVG 1.1//EN" "http://www.w3.org/Graphics/SVG/1.1/DTD/svg11.dtd">
<svg version="1.1" xmlns="http://www.w3.org/2000/svg" xmlns:xlink="http://www.w3.org/1999/xlink" x="0px" y="0px" viewBox="0 0 256 256" enable-background="new 0 0 256 256" xml:space="preserve">
<metadata> Svg Vector Icons : http://www.onlinewebfonts.com/icon </metadata>
<g><g><path fill="#000000" d="M71.3,220.3h76c6.6,0,12-5.4,12-12s-5.4-12-12-12H80.8l-22.1-90.6c-1.6-6.5-8.1-10.4-14.5-8.8c-6.5,1.6-10.4,8.1-8.8,14.5l24.3,99.8C60.9,216.5,65.8,220.3,71.3,220.3z"/><path fill="#000000" d="M206,246c2.2,0,4.5-0.5,6.6-1.5c7.5-3.6,10.6-12.6,6.9-20.1l-27.4-56.1c-2.5-5.2-7.8-8.5-13.5-8.5h-63.7l-8.5-42.2l18.1,12.5c1.8,1.3,3.9,2.1,6.1,2.5l41.1,6.7c8.2,1.3,15.9-4.2,17.3-12.4c1.3-8.2-4.2-15.9-12.4-17.3l-37.8-6.2l-46-31.8c-5.1-3.5-11.7-3.6-16.8-0.2c-5.1,3.4-7.7,9.5-6.5,15.5l18.3,90.8c1.4,7,7.6,12.1,14.8,12.1h66.6l23.3,47.7C195.1,242.9,200.4,246,206,246z"/><path fill="#000000" d="M54.2,36c0,14.4,11.6,26,26,26c14.4,0,26-11.6,26-26c0-14.4-11.6-26-26-26C65.8,10,54.2,21.6,54.2,36z"/></g></g>
</svg>